<?xml version="1.0" standalone="no"?>
<!DOCTYPE svg PUBLIC "-//W3C//DTD SVG 20010904//EN"
 "http://www.w3.org/TR/2001/REC-SVG-20010904/DTD/svg10.dtd">
<svg version="1.0" xmlns="http://www.w3.org/2000/svg"
 width="217.000000pt" height="217.000000pt" viewBox="0 0 217.000000 217.000000"
 preserveAspectRatio="xMidYMid meet">
<metadata>
Created by potrace 1.14, written by Peter Selinger 2001-2017
</metadata>
<g transform="translate(0.000000,217.000000) scale(0.100000,-0.100000)"
fill="#000000" stroke="none">
<path d="M870 2159 c-88 -10 -167 -36 -285 -96 -198 -100 -250 -147 -257 -230
-3 -43 32 -110 65 -124 20 -9 36 -30 58 -78 17 -36 32 -70 33 -76 1 -5 10 -28
20 -50 16 -36 17 -61 12 -235 -3 -107 -8 -208 -10 -225 -3 -16 -7 -93 -11
-170 -3 -77 -9 -194 -12 -260 -13 -229 -10 -377 9 -411 68 -125 235 -195 468
-196 137 0 254 20 400 69 166 56 236 95 359 198 150 127 293 333 293 423 0 41
-18 68 -169 252 -145 177 -258 306 -402 459 -64 68 -128 138 -144 155 -90 101
-210 333 -187 361 14 16 5 127 -13 160 -34 65 -104 88 -227 74z m142 -321 c-7
-9 -5 -19 8 -35 9 -12 20 -19 24 -16 3 4 6 2 6 -3 0 -6 -5 -15 -11 -21 -8 -8
-7 -11 5 -10 11 1 24 -15 38 -48 12 -27 36 -71 55 -98 18 -26 33 -54 33 -63 0
-8 5 -12 10 -9 6 3 10 2 10 -3 0 -8 49 -66 96 -114 9 -9 13 -21 9 -27 -3 -6
-1 -11 5 -11 14 0 29 -15 53 -53 32 -49 12 -39 -45 23 -31 33 -53 60 -50 60 4
0 -4 10 -18 21 -14 11 -18 18 -10 14 8 -4 6 1 -5 10 -11 9 -19 21 -18 26 2 5
-2 9 -7 9 -6 0 -10 7 -10 17 0 9 -3 13 -7 10 -3 -4 -13 2 -20 13 -8 11 -19 17
-25 14 -5 -4 -21 -1 -34 7 -23 12 -23 14 -7 31 9 10 11 18 6 18 -6 0 -13 -7
-17 -15 -3 -8 -11 -15 -17 -15 -7 0 -5 9 5 25 9 14 13 25 9 25 -5 0 -14 -10
-22 -22 -12 -19 -11 -23 10 -39 26 -20 19 -25 -11 -9 -15 8 -18 7 -15 -2 3 -8
-4 -14 -19 -14 -18 -1 -23 2 -19 14 4 10 2 13 -5 8 -7 -4 -12 -15 -12 -24 0
-15 -2 -15 -10 -2 -5 8 -10 10 -10 4 0 -6 -12 -16 -26 -22 -14 -7 -23 -8 -19
-2 3 5 1 10 -4 10 -6 0 -11 -7 -11 -15 0 -9 -6 -12 -15 -9 -11 5 -13 10 -5 19
5 6 8 14 5 17 -3 3 2 11 12 19 15 12 16 12 9 -6 -4 -11 -4 -16 0 -12 4 4 14 1
23 -6 14 -11 14 -10 2 6 -8 9 -14 27 -15 39 0 12 -7 23 -14 24 -7 1 -8 0 -2
-3 5 -2 10 -9 10 -14 0 -6 -6 -7 -12 -3 -7 4 -10 4 -6 -1 4 -4 0 -14 -8 -22
-8 -8 -12 -19 -9 -23 3 -5 -4 -14 -15 -20 -11 -6 -20 -16 -20 -23 0 -8 3 -8 9
2 5 8 14 10 21 6 8 -5 1 -12 -21 -22 -19 -8 -38 -15 -44 -16 -5 -1 -18 -10
-29 -19 -11 -10 -28 -18 -38 -18 -11 0 -16 -4 -13 -10 3 -5 0 -10 -9 -10 -8 0
-17 6 -20 13 -3 6 -3 2 0 -10 3 -16 -1 -23 -16 -28 -11 -3 -20 -10 -20 -14 0
-4 -8 -7 -18 -8 -20 -2 -24 29 -9 55 5 6 6 16 3 21 -5 8 -16 67 -18 99 -1 6
-5 12 -10 12 -6 0 -38 63 -38 76 0 1 7 10 16 18 8 9 11 16 5 16 -5 0 -13 -5
-17 -11 -4 -7 -11 -2 -18 13 -15 27 -11 45 9 45 8 0 12 -4 9 -9 -3 -4 0 -8 5
-8 6 0 11 4 11 8 0 4 10 9 23 9 12 1 32 5 45 8 20 5 22 3 13 -14 -19 -35 -12
-37 9 -3 12 20 26 32 34 29 8 -3 26 1 41 9 15 8 33 14 40 14 8 0 21 7 29 16 9
8 16 11 16 6 0 -6 7 -13 16 -16 14 -5 15 -4 5 7 -16 21 46 51 68 34 12 -10 14
-9 9 5 -5 11 2 20 23 28 16 7 29 16 29 21 0 5 5 9 11 9 8 0 8 -4 1 -12z m23
-19 c11 -17 -1 -21 -15 -4 -8 9 -8 15 -2 15 6 0 14 -5 17 -11z m-377 -519 c-1
-22 -6 -40 -10 -40 -5 0 -4 -9 2 -20 8 -16 8 -20 -4 -20 -8 0 -18 5 -21 10 -3
6 -2 10 2 10 5 0 8 15 7 32 -1 18 3 39 9 47 9 12 9 13 0 7 -7 -4 -13 -2 -13 3
0 6 7 11 15 11 12 0 15 -10 13 -40z m800 -85 c19 -15 31 -34 28 -41 -3 -8 0
-14 7 -14 13 0 87 -77 87 -91 0 -5 8 -9 18 -9 16 -1 16 -1 0 -11 -14 -8 -23
-5 -40 11 -13 12 -24 25 -24 31 -1 5 -2 14 -3 19 0 6 -6 10 -11 10 -17 0 -60
54 -55 69 4 8 0 11 -9 8 -9 -4 -17 1 -21 13 -3 10 -12 21 -20 24 -8 3 -15 12
-15 21 0 8 -4 14 -9 13 -5 -2 -9 0 -10 5 -4 27 2 27 22 0 12 -16 37 -43 55
-58z m-808 -17 c0 -13 -23 -5 -28 10 -2 7 2 10 12 6 9 -3 16 -11 16 -16z m0
-43 c0 -14 -4 -25 -9 -25 -5 0 -11 11 -13 25 -4 17 -1 25 8 25 8 0 14 -11 14
-25z m-4 -160 c0 -82 -3 -125 -10 -125 -6 0 -4 -5 4 -10 13 -9 13 -10 0 -10
-9 0 -11 -3 -5 -8 13 -9 18 -35 5 -27 -5 3 -10 1 -10 -4 0 -6 4 -11 8 -11 5 0
9 -7 9 -15 0 -8 -4 -12 -9 -9 -4 3 -8 0 -8 -5 0 -6 4 -11 8 -11 5 0 8 -20 8
-45 -1 -25 -3 -45 -6 -45 -3 0 -6 -21 -7 -47 -2 -98 -3 -113 -11 -113 -5 0 -7
35 -4 78 3 42 5 139 6 214 0 76 4 138 8 138 4 0 3 14 -2 30 -5 17 -5 30 0 30
5 0 7 6 4 13 -10 27 -10 87 0 87 6 0 4 5 -4 10 -13 9 -13 10 0 10 14 0 16 -19
16 -125z m1008 0 c21 -25 35 -45 31 -45 -3 0 7 -12 22 -26 15 -14 28 -29 28
-32 0 -4 9 -16 20 -28 39 -40 80 -95 78 -104 -2 -5 3 -7 10 -5 6 2 23 -10 36
-26 19 -25 21 -33 11 -39 -8 -5 -18 -6 -24 -3 -5 4 -1 10 10 14 16 6 16 8 2 8
-9 1 -20 -4 -24 -10 -7 -12 15 -31 28 -23 4 3 -1 -11 -13 -30 -12 -20 -28 -36
-37 -36 -13 0 -14 -2 -4 -8 9 -7 8 -13 -8 -27 -20 -18 -38 -15 -25 4 3 6 12 8
18 5 8 -4 7 -2 -1 7 -11 12 -14 12 -22 -1 -5 -8 -7 -22 -5 -30 3 -9 -11 -33
-30 -55 -19 -22 -35 -36 -35 -31 0 4 -9 -2 -20 -15 -10 -13 -19 -21 -20 -17 0
4 -11 -4 -25 -17 -26 -27 -60 -33 -69 -12 -3 6 -3 2 -1 -9 6 -21 -25 -47 -79
-67 -16 -6 -17 -5 -6 7 6 9 15 14 18 13 12 -4 56 32 49 40 -4 4 -14 -3 -23
-15 -8 -12 -19 -20 -24 -17 -5 3 -17 -5 -27 -18 -14 -18 -75 -57 -89 -57 -2 0
-1 8 2 18 2 9 -1 7 -7 -5 -7 -13 -17 -24 -23 -25 -6 0 -15 -2 -21 -2 -5 -1
-16 -5 -23 -10 -7 -4 -18 -3 -25 3 -9 7 -17 7 -27 -1 -12 -8 -12 -9 3 -4 9 3
17 2 17 -3 0 -8 -27 -18 -79 -27 -22 -5 -23 -3 -10 12 12 15 12 17 0 9 -9 -5
-12 -4 -8 2 4 6 21 14 39 17 18 3 46 13 62 21 15 8 32 13 36 10 5 -3 11 -1 15
5 3 5 11 10 17 10 6 0 3 -9 -7 -20 -10 -11 -14 -20 -8 -20 5 0 15 11 23 24 12
24 51 42 79 37 7 -1 11 2 8 6 -3 5 9 15 26 23 18 7 34 16 37 19 3 4 25 19 48
34 42 27 44 28 58 10 13 -17 14 -17 7 1 -5 14 -3 17 7 11 9 -5 11 -4 6 3 -6
11 6 16 19 10 2 -2 10 6 18 16 8 10 19 16 25 12 6 -3 13 -3 16 2 10 17 -30 8
-66 -15 -21 -13 -38 -20 -38 -15 0 10 37 42 49 42 5 0 16 11 25 25 9 14 21 25
27 25 16 0 60 52 76 89 14 32 15 33 34 15 17 -15 19 -15 14 -2 -4 9 -14 19
-23 23 -14 5 -14 7 -2 15 9 6 10 10 3 10 -7 0 -20 16 -29 35 -14 30 -14 38 -3
53 13 15 12 16 -4 3 -9 -8 -21 -11 -24 -7 -4 4 -1 12 7 17 13 9 12 10 -1 6
-19 -6 -84 67 -74 83 3 6 0 10 -8 10 -14 0 -107 112 -107 130 0 23 30 7 64
-35z m-1026 -572 c0 -43 0 -82 2 -88 4 -13 -10 -45 -19 -45 -4 0 -8 7 -8 15 0
8 5 15 11 15 6 0 4 5 -4 10 -12 8 -12 10 -1 10 11 0 11 3 1 15 -7 8 -9 15 -4
15 5 0 9 29 8 65 0 36 3 65 7 65 4 0 8 -35 7 -77z m32 -134 c0 -5 6 -9 13 -9
8 0 28 -7 46 -16 17 -9 43 -17 57 -19 29 -3 41 -12 29 -22 -4 -5 -10 -2 -12 5
-3 6 -10 12 -16 12 -6 0 -4 -8 6 -17 15 -16 18 -16 36 1 19 18 20 17 18 -3 -1
-18 -7 -21 -34 -19 -18 1 -33 6 -33 11 0 5 -6 4 -13 -2 -8 -6 -17 -8 -21 -4
-4 4 -22 8 -41 10 -41 2 -96 29 -92 45 6 32 57 56 57 27z m534 -53 c-6 -16
-28 -23 -66 -22 -16 1 -28 -2 -28 -7 0 -4 -5 -5 -11 -1 -17 10 10 30 51 38 25
4 31 3 20 -4 -11 -7 -11 -10 -2 -10 7 0 15 7 18 15 4 8 10 13 15 10 4 -3 6
-12 3 -19z m-302 -24 c-1 -8 2 -11 8 -7 6 3 8 11 5 16 -9 13 9 11 24 -3 8 -7
11 -8 8 -3 -3 7 21 10 67 10 49 0 73 -3 73 -11 0 -7 -15 -12 -33 -12 -18 0
-37 -3 -43 -6 -5 -4 -14 2 -20 11 -8 15 -10 15 -11 3 0 -12 -12 -15 -54 -14
-57 1 -80 9 -70 25 9 15 50 6 46 -9z"/>
<path d="M975 1810 c-7 -11 22 -26 32 -16 4 3 -1 6 -11 6 -9 0 -14 5 -11 10 3
6 4 10 1 10 -3 0 -8 -5 -11 -10z"/>
<path d="M960 1782 c0 -6 -12 -18 -27 -26 -17 -9 -22 -15 -12 -16 19 0 55 37
46 47 -4 3 -7 1 -7 -5z"/>
<path d="M885 1770 c-2 -3 5 -6 15 -7 11 -1 22 2 25 7 3 5 -4 8 -16 7 -11 -1
-22 -4 -24 -7z"/>
<path d="M976 1764 c-3 -12 -16 -26 -29 -32 -12 -6 -17 -11 -11 -11 20 -1 57
35 52 50 -3 10 -7 8 -12 -7z"/>
<path d="M1006 1765 c4 -8 8 -15 10 -15 2 0 4 7 4 15 0 8 -4 15 -10 15 -5 0
-7 -7 -4 -15z"/>
<path d="M890 1741 c0 -10 19 -25 25 -20 1 2 -3 10 -11 17 -8 7 -14 8 -14 3z"/>
<path d="M1035 1740 c-16 -7 -17 -9 -3 -9 9 -1 20 4 23 9 7 11 7 11 -20 0z"/>
<path d="M812 1710 c-13 -17 -20 -30 -15 -30 4 0 17 11 27 25 18 24 44 36 31
15 -3 -5 -1 -10 5 -10 16 0 6 25 -11 27 -8 1 -24 -11 -37 -27z"/>
<path d="M1011 1713 c13 -16 25 -30 27 -32 1 -3 9 4 16 15 8 10 12 21 10 24
-3 2 -9 -2 -14 -10 -7 -12 -12 -11 -28 8 -11 12 -23 22 -27 22 -5 0 2 -12 16
-27z"/>
<path d="M770 1710 c0 -5 5 -10 11 -10 5 0 7 5 4 10 -3 6 -8 10 -11 10 -2 0
-4 -4 -4 -10z"/>
<path d="M886 1707 c3 -10 9 -15 12 -12 3 3 0 11 -7 18 -10 9 -11 8 -5 -6z"/>
<path d="M970 1711 c0 -5 -15 -8 -32 -6 -18 2 -27 1 -20 -2 6 -2 12 -9 12 -14
0 -6 -4 -7 -10 -4 -6 4 -7 -1 -3 -12 6 -16 5 -16 -10 -4 -9 7 -17 9 -17 3 0
-5 7 -12 15 -16 8 -3 15 -10 15 -16 0 -7 -8 -6 -22 2 -13 7 -30 11 -38 9 -12
-2 -11 1 3 16 9 11 17 23 17 28 0 4 -8 -2 -19 -13 -10 -12 -22 -18 -26 -14 -5
4 -5 1 -1 -5 4 -7 3 -13 -3 -13 -5 0 -12 5 -14 10 -3 6 -4 5 -3 -2 2 -7 16
-13 33 -13 17 0 38 -6 46 -14 18 -15 41 -5 33 14 -6 15 22 57 34 50 4 -3 13 2
20 10 9 10 9 15 1 15 -6 0 -11 -4 -11 -9z"/>
<path d="M700 1675 c-19 -36 -8 -40 12 -4 9 16 14 29 9 29 -4 0 -14 -11 -21
-25z"/>
<path d="M761 1679 c11 -11 18 -24 14 -27 -4 -4 -12 1 -19 11 -7 9 -17 17 -21
17 -4 0 -2 -7 6 -16 11 -13 10 -15 -6 -12 -10 1 -20 -3 -23 -11 -3 -10 0 -12
14 -7 53 21 90 7 81 -31 -3 -15 -6 -14 -15 7 -6 14 -11 18 -11 10 -1 -23 15
-43 28 -36 6 4 11 14 11 23 0 18 -57 93 -71 93 -5 0 0 -9 12 -21z"/>
<path d="M830 1690 c-8 -5 -10 -10 -5 -10 6 0 17 5 25 10 8 5 11 10 5 10 -5 0
-17 -5 -25 -10z"/>
<path d="M994 1670 c4 -33 -17 -70 -40 -70 -17 0 -19 17 -1 23 7 2 6 3 -3 3
-8 -1 -15 -8 -15 -16 0 -11 12 -15 40 -16 22 -1 34 1 28 3 -14 5 -18 24 -5 22
19 -3 32 2 32 12 0 8 -4 8 -14 0 -11 -9 -13 -6 -13 13 0 21 2 24 18 16 23 -13
29 -13 29 0 0 6 -3 9 -7 8 -15 -3 -43 14 -37 23 3 5 1 9 -5 9 -6 0 -9 -13 -7
-30z"/>
<path d="M633 1669 c1 -10 4 -16 8 -13 4 2 9 -2 12 -8 2 -7 4 -1 3 13 0 14 -6
26 -13 26 -6 0 -11 -8 -10 -18z"/>
<path d="M567 1669 c7 -7 15 -10 18 -7 3 3 -2 9 -12 12 -14 6 -15 5 -6 -5z"/>
<path d="M605 1670 c-3 -5 -1 -10 4 -10 6 0 11 5 11 10 0 6 -2 10 -4 10 -3 0
-8 -4 -11 -10z"/>
<path d="M958 1673 c7 -3 16 -2 19 1 4 3 -2 6 -13 5 -11 0 -14 -3 -6 -6z"/>
<path d="M1069 1668 c6 -7 22 -26 36 -43 l26 -30 -27 43 c-15 23 -31 42 -36
42 -5 0 -4 -6 1 -12z"/>
<path d="M940 1652 c0 -4 9 -8 20 -9 11 -1 20 2 20 5 0 4 -9 8 -20 9 -11 1
-20 -2 -20 -5z"/>
<path d="M1051 1632 c-7 -18 -17 -29 -22 -26 -5 3 -6 -2 -3 -11 5 -13 11 -10
26 15 10 18 17 37 15 43 -2 6 -9 -4 -16 -21z"/>
<path d="M670 1641 c0 -10 19 -25 25 -20 1 2 -3 10 -11 17 -8 7 -14 8 -14 3z"/>
<path d="M605 1620 c-21 -23 -11 -27 11 -5 22 22 62 -6 58 -41 -3 -30 -23 -56
-36 -48 -6 4 -4 -4 2 -17 17 -33 24 -38 16 -13 -4 14 -1 26 10 35 15 12 16 11
10 -11 -6 -25 -6 -25 5 -2 7 12 16 22 21 22 4 0 8 5 8 11 0 8 -4 8 -14 0 -11
-9 -13 -6 -13 14 0 24 1 25 22 11 14 -10 26 -11 36 -5 12 8 12 9 -1 7 -8 -1
-36 12 -62 30 -26 17 -48 32 -51 32 -2 0 -12 -9 -22 -20z"/>
<path d="M750 1619 c0 -5 -4 -7 -10 -4 -5 3 -10 0 -10 -7 0 -10 -3 -9 -11 2
-8 11 -10 12 -7 1 2 -8 17 -15 33 -16 17 -2 24 -1 17 2 -10 4 -10 8 -1 19 8
10 8 14 0 14 -6 0 -11 -5 -11 -11z"/>
<path d="M838 1623 c10 -4 10 -8 1 -19 -8 -10 -8 -14 0 -14 6 0 11 5 11 11 0
5 5 7 10 4 6 -3 10 0 10 7 0 10 3 9 11 -2 8 -11 10 -12 7 -1 -2 8 -17 15 -33
16 -17 2 -24 1 -17 -2z"/>
<path d="M628 1603 c6 -2 10 -9 7 -14 -4 -5 1 -6 10 -2 13 5 14 7 3 14 -7 5
-17 8 -23 8 -5 0 -4 -3 3 -6z"/>
<path d="M611 1574 c0 -11 3 -14 6 -6 3 7 2 16 -1 19 -3 4 -6 -2 -5 -13z"/>
<path d="M861 1581 c-8 -5 -20 -7 -27 -4 -20 7 -27 -17 -10 -36 9 -10 13 -21
9 -24 -3 -4 -1 -7 5 -7 16 0 15 6 -4 35 -11 16 -12 25 -5 25 6 0 14 -7 17 -15
4 -8 11 -15 16 -15 6 0 5 7 -3 16 -11 13 -10 15 6 12 10 -1 20 3 22 10 5 14
-6 15 -26 3z"/>
<path d="M1130 1586 c0 -2 8 -10 18 -17 15 -13 16 -12 3 4 -13 16 -21 21 -21
13z"/>
<path d="M640 1570 c-13 -8 -13 -11 -1 -22 8 -8 11 -8 7 -1 -3 6 0 13 6 16 7
2 11 7 8 10 -3 3 -12 2 -20 -3z"/>
<path d="M772 1566 c7 -8 15 -12 17 -11 5 6 -10 25 -20 25 -5 0 -4 -6 3 -14z"/>
<path d="M940 1575 c0 -25 15 -33 34 -19 11 7 16 17 12 21 -4 4 -11 1 -17 -7
-8 -13 -10 -13 -19 0 -5 8 -10 11 -10 5z"/>
<path d="M1012 1566 c7 -8 15 -12 17 -11 5 6 -10 25 -20 25 -5 0 -4 -6 3 -14z"/>
<path d="M1110 1571 c0 -5 7 -12 16 -15 14 -5 15 -4 4 9 -14 17 -20 19 -20 6z"/>
<path d="M717 1532 c-15 -15 -27 -35 -27 -43 1 -7 7 -2 16 13 8 15 27 34 42
42 16 9 21 15 11 16 -8 0 -27 -13 -42 -28z"/>
<path d="M760 1534 c0 -3 5 -15 11 -26 10 -18 9 -20 -5 -15 -8 3 -18 2 -21 -3
-4 -6 -11 -10 -17 -10 -6 0 -3 9 7 20 10 11 14 20 9 20 -12 0 -37 -40 -30 -47
3 -3 13 -2 23 2 22 10 52 10 78 -1 17 -7 18 -6 5 8 -8 9 -18 14 -21 12 -7 -4
-23 26 -21 39 1 4 -2 7 -8 7 -5 0 -10 -3 -10 -6z"/>
<path d="M790 1530 c0 -6 4 -9 9 -6 5 4 12 1 14 -4 3 -6 4 -5 3 2 -3 15 -26
23 -26 8z"/>
<path d="M670 1481 c0 -10 19 -25 25 -20 1 2 -3 10 -11 17 -8 7 -14 8 -14 3z"/>
<path d="M640 1465 c0 -2 11 -16 25 -31 14 -15 25 -22 25 -15 0 6 -7 14 -15
17 -8 4 -13 10 -10 14 3 4 -2 10 -10 14 -8 3 -15 3 -15 1z"/>
<path d="M753 1458 c5 -17 30 -17 33 0 1 7 0 8 -3 2 -2 -5 -9 -10 -14 -10 -6
0 -7 5 -4 10 3 6 1 10 -5 10 -7 0 -10 -6 -7 -12z"/>
<path d="M700 1450 c-8 -5 -10 -10 -5 -11 47 -7 53 -6 47 9 -4 11 -7 12 -10 4
-2 -7 -8 -12 -13 -12 -6 0 -7 5 -4 10 8 12 4 12 -15 0z"/>
<path d="M664 1401 c1 -17 26 -28 26 -11 0 6 -4 9 -9 5 -5 -3 -11 0 -14 7 -2
9 -4 8 -3 -1z"/>
<path d="M1315 1350 c10 -11 20 -20 23 -20 3 0 -3 9 -13 20 -10 11 -20 20 -23
20 -3 0 3 -9 13 -20z"/>
<path d="M1547 1079 c7 -7 15 -10 18 -7 3 3 -2 9 -12 12 -14 6 -15 5 -6 -5z"/>
<path d="M1614 1009 c-4 -7 -3 -9 4 -5 5 3 13 0 15 -6 4 -9 6 -10 6 -1 1 17
-16 25 -25 12z"/>
<path d="M1660 949 c0 -5 5 -7 10 -4 6 3 10 8 10 11 0 2 -4 4 -10 4 -5 0 -10
-5 -10 -11z"/>
<path d="M1677 919 c7 -7 15 -10 18 -7 3 3 -2 9 -12 12 -14 6 -15 5 -6 -5z"/>
<path d="M1724 861 c20 -22 26 -25 26 -13 0 4 -10 13 -22 21 -23 14 -23 14 -4
-8z"/>
<path d="M1758 823 c7 -3 16 -2 19 1 4 3 -2 6 -13 5 -11 0 -14 -3 -6 -6z"/>
<path d="M1811 764 c0 -11 3 -14 6 -6 3 7 2 16 -1 19 -3 4 -6 -2 -5 -13z"/>
<path d="M1832 726 c7 -8 15 -10 16 -5 2 5 9 6 15 2 7 -3 9 -2 4 2 -4 5 -17
10 -28 12 -16 2 -18 1 -7 -11z"/>
<path d="M1815 631 c-3 -6 3 -9 14 -8 11 0 17 5 15 9 -7 11 -22 10 -29 -1z"/>
<path d="M1747 545 c-16 -11 -16 -13 -2 -19 9 -3 14 -2 10 3 -3 5 1 11 7 14 7
2 11 7 8 10 -3 3 -13 0 -23 -8z"/>
<path d="M1717 519 c7 -7 15 -10 18 -7 3 3 -2 9 -12 12 -14 6 -15 5 -6 -5z"/>
<path d="M1600 426 c0 -2 7 -7 16 -10 8 -3 12 -2 9 4 -6 10 -25 14 -25 6z"/>
<path d="M1320 290 c-9 -6 -10 -10 -3 -10 6 0 15 5 18 10 8 12 4 12 -15 0z"/>
<path d="M630 275 c-11 -13 -11 -18 0 -28 10 -9 11 -9 6 1 -4 7 -2 19 4 27 7
8 10 15 7 15 -2 0 -10 -7 -17 -15z"/>
<path d="M673 248 c-2 -18 0 -20 7 -8 12 18 13 30 2 30 -4 0 -9 -10 -9 -22z"/>
<path d="M705 250 c3 -5 1 -10 -4 -10 -6 0 -11 -5 -11 -11 0 -8 5 -8 15 1 12
10 18 10 30 0 8 -7 15 -8 15 -3 0 5 -12 15 -26 21 -14 7 -23 8 -19 2z"/>
</g>
</svg>
